<svg width="28" height="28" viewBox="0 0 28 28" fill="none" xmlns="http://www.w3.org/2000/svg">
<path d="M19.2948 15.6494C19.2124 15.734 18.9013 16.0956 18.6115 16.3931C16.9123 18.2642 12.4798 21.3267 10.1598 22.2615C9.80748 22.4117 8.91671 22.7296 8.44078 22.75C7.98474 22.75 7.55001 22.645 7.13517 22.4321C6.61804 22.1346 6.2032 21.6665 5.97589 21.1137C5.82956 20.7302 5.60225 19.5825 5.60225 19.5621C5.37494 18.3065 5.24992 16.2662 5.24992 14.0117C5.24992 11.8635 5.37494 9.90646 5.56105 8.63188C5.58236 8.61146 5.80967 7.18521 6.05829 6.69666C6.51433 5.80416 7.4051 5.25 8.35838 5.25H8.44078C9.06162 5.27188 10.3672 5.82604 10.3672 5.84646C12.5622 6.78271 16.8924 9.695 18.6328 11.6302C18.6328 11.6302 19.1229 12.1275 19.336 12.4381C19.6685 12.8844 19.8333 13.4371 19.8333 13.9898C19.8333 14.6067 19.6471 15.1812 19.2948 15.6494Z" fill="white"/>
<rect x="21" y="6.41666" width="1.75" height="15.1667" rx="0.875" fill="white"/>
</svg>
