<svg width="28" height="28" viewBox="0 0 28 28" fill="none" xmlns="http://www.w3.org/2000/svg">
<rect x="4" y="4" width="20" height="20" rx="4" fill="white"/>
<path d="M11.7154 9.60837C11.8488 9.60837 11.957 9.71651 11.957 9.84991V18.1501C11.957 18.2835 11.8488 18.3916 11.7154 18.3916H10.3415C10.2081 18.3916 10.1 18.2835 10.1 18.1501V11.411C10.1 11.3889 10.0821 11.371 10.06 11.371V11.371C10.0525 11.371 10.0451 11.3731 10.0388 11.3771L8.40694 12.4001C8.24607 12.5009 8.03711 12.3853 8.03711 12.1954V11.118C8.03711 11.0352 8.0795 10.9582 8.14944 10.9139L10.1523 9.64583C10.191 9.62136 10.2358 9.60837 10.2815 9.60837H11.7154Z" fill="black"/>
<path d="M15.4424 11.8042C15.5322 11.8042 15.6146 11.854 15.6563 11.9334L16.5866 13.705C16.6766 13.8763 16.9214 13.8775 17.0131 13.7071L17.9689 11.9313C18.011 11.853 18.0927 11.8042 18.1816 11.8042H19.4923C19.6784 11.8042 19.7946 12.0058 19.7013 12.1668L18.0741 14.9752C18.0302 15.0509 18.0307 15.1445 18.0755 15.2198L19.7457 18.0266C19.8415 18.1876 19.7254 18.3916 19.5381 18.3916H18.2376C18.1508 18.3916 18.0708 18.3451 18.0278 18.2698L17.0094 16.485C16.9163 16.3219 16.6809 16.3228 16.5889 16.4865L15.589 18.2683C15.5463 18.3445 15.4657 18.3916 15.3784 18.3916H14.0571C13.8699 18.3916 13.7538 18.1878 13.8494 18.0268L15.5165 15.219C15.5609 15.1442 15.5617 15.0512 15.5184 14.9756L13.9086 12.1658C13.8163 12.0048 13.9326 11.8042 14.1182 11.8042H15.4424Z" fill="black"/>
</svg>
