<svg width="28" height="28" viewBox="0 0 28 28" fill="none" xmlns="http://www.w3.org/2000/svg">
<path d="M12.5506 3.50001C13.7679 3.50001 14.9032 4.3768 15.313 5.78214C15.4635 6.36958 15.5246 6.95827 15.5834 7.52566L15.6384 8.04171C15.8488 9.76394 15.8488 18.2248 15.6384 19.9596L15.5834 20.4944C15.5308 21.0342 15.4769 21.5929 15.3216 22.1891C14.9117 23.5907 13.8193 24.5 12.5788 24.5C12.5396 24.5 12.5005 24.5 12.4564 24.4987C11.7714 24.4987 11.0263 24.0779 10.6043 23.7109L6.4901 20.2802H4.37735C2.74661 20.2802 1.5526 19.0991 1.33607 17.2716C1.0865 15.4442 1.13544 12.3091 1.33607 10.6482C1.57218 8.91848 2.82245 7.71981 4.37735 7.71981H6.4901L10.526 4.33922C11.0129 3.91586 11.8717 3.49752 12.5506 3.50001ZM22.5051 3.75792C22.9921 3.41222 23.6612 3.53873 23.9952 4.03348C25.8254 6.72768 26.8334 10.2686 26.8334 13.9999C26.8334 17.7337 25.8254 21.2733 23.9952 23.9675C23.7958 24.2619 23.4667 24.4385 23.1156 24.4385C22.8979 24.4385 22.6874 24.3709 22.5064 24.2431C22.0219 23.8962 21.902 23.2135 22.2372 22.7175C23.8203 20.3853 24.6925 17.289 24.6925 13.9999C24.6925 10.712 23.8203 7.61572 22.2372 5.2835C21.902 4.78875 22.0219 4.10487 22.5051 3.75792ZM18.8165 7.30146C19.3046 6.95701 19.9713 7.08102 20.3077 7.57702C21.4895 9.31804 22.1416 11.5989 22.1416 14C22.1416 16.4011 21.4895 18.682 20.3077 20.423C20.1071 20.7173 19.7793 20.894 19.4281 20.894C19.2104 20.894 18.9987 20.8263 18.8177 20.6986C18.3332 20.3516 18.2133 19.6677 18.5498 19.173C19.4856 17.7939 20.0007 15.9565 20.0007 14C20.0007 12.0423 19.4856 10.2061 18.5498 8.82705C18.2133 8.3323 18.3332 7.64841 18.8165 7.30146Z" fill="white"/>
</svg>
