<svg width="28" height="28" viewBox="0 0 28 28" fill="none" xmlns="http://www.w3.org/2000/svg">
<path d="M20.4616 15.6494C20.3792 15.734 20.068 16.0956 19.7782 16.3931C18.0791 18.2642 13.6465 21.3267 11.3266 22.2615C10.9742 22.4117 10.0835 22.7296 9.60753 22.75C9.15149 22.75 8.71676 22.645 8.30192 22.4321C7.78479 22.1346 7.36995 21.6665 7.14264 21.1137C6.99631 20.7302 6.769 19.5825 6.769 19.5621C6.54169 18.3065 6.41667 16.2662 6.41667 14.0117C6.41667 11.8635 6.54169 9.90646 6.7278 8.63188C6.74911 8.61146 6.97642 7.18521 7.22504 6.69666C7.68108 5.80416 8.57185 5.25 9.52513 5.25H9.60753C10.2284 5.27187 11.534 5.82604 11.534 5.84646C13.7289 6.78271 18.0592 9.695 19.7995 11.6302C19.7995 11.6302 20.2897 12.1275 20.5028 12.4381C20.8352 12.8844 21 13.4371 21 13.9898C21 14.6067 20.8139 15.1812 20.4616 15.6494Z" fill="white"/>
</svg>

